<svg id="Layer_1" data-name="Layer 1" xmlns="http://www.w3.org/2000/svg" viewBox="0 0 30 30"><defs><style>.cls-1{fill:#3c3c3b;}</style></defs><title>MASTER Finastra Icons</title><path class="cls-1" d="M26,20.76a.52.52,0,0,0,.52-.52V2.07A.52.52,0,0,0,26,1.55H17.62l-4.33,0-6.24,0H7S3.58,1.65,3.58,6v19s0,0,0,0a2.71,2.71,0,0,0-.09.71,2.38,2.38,0,0,0,.74,1.81,4.19,4.19,0,0,0,2.72.9h.15L26,28.42a.53.53,0,0,0,.52-.53.52.52,0,0,0-.52-.52h-.9a2.16,2.16,0,0,1-.71-1.47,3.24,3.24,0,0,1,.81-1.73H26a.52.52,0,0,0,.52-.52.52.52,0,0,0-.52-.52H7.11a4.68,4.68,0,0,0-2.49.56V6A3.46,3.46,0,0,1,5.84,3a2.7,2.7,0,0,1,1.22-.47l6.23,0,4.33.05h7.84V20.24A.52.52,0,0,0,26,20.76ZM7.06,24.18H23.89a3.53,3.53,0,0,0-.57,1.68,2.71,2.71,0,0,0,.42,1.53l-16.65.07h0A3.33,3.33,0,0,1,5,26.85a1.39,1.39,0,0,1-.41-1.05,1.31,1.31,0,0,1,.41-1A3.15,3.15,0,0,1,7.06,24.18Z"/><path class="cls-1" d="M8.07,12.8A6.93,6.93,0,1,0,15,5.87,6.93,6.93,0,0,0,8.07,12.8Zm12.81,0A5.89,5.89,0,1,1,15,6.92,5.89,5.89,0,0,1,20.88,12.8Z"/><path class="cls-1" d="M14.56,8.93v6.21l-1.7-1.7a.53.53,0,0,0-.74,0,.52.52,0,0,0,0,.73l2.59,2.6.08.06,0,0,.06,0h0l.06,0h.21l.06,0h0l.07,0s0,0,0,0l.08-.06,2.42-2.42a.52.52,0,0,0-.74-.74L15.6,15.14V8.93a.52.52,0,0,0-.52-.52A.52.52,0,0,0,14.56,8.93Z"/></svg>